<svg width="480" height="280" viewBox="0 0 480 280" fill="none" xmlns="http://www.w3.org/2000/svg">
  <rect width="480" height="280" rx="18" fill="#F4F8FF"/>
  <rect x="70" y="40" width="340" height="170" rx="16" fill="#1E9A8A"/>
  <rect x="88" y="58" width="304" height="134" rx="12" fill="#26B6A2"/>
  <rect x="160" y="88" width="160" height="74" rx="10" fill="#1F2C4B"/>
  <rect x="178" y="104" width="124" height="42" rx="8" fill="#2E3F67"/>
  <text x="240" y="131" text-anchor="middle" fill="#F5F8FF" font-size="24" font-family="Segoe UI, Arial" font-weight="700">INA219</text>
  <circle cx="118" cy="96" r="8" fill="#FFD15C"/>
  <circle cx="118" cy="122" r="8" fill="#FFD15C"/>
  <circle cx="362" cy="96" r="8" fill="#FFD15C"/>
  <circle cx="362" cy="122" r="8" fill="#FFD15C"/>
  <rect x="124" y="88" width="28" height="6" rx="3" fill="#C8FFF3"/>
  <rect x="124" y="114" width="28" height="6" rx="3" fill="#C8FFF3"/>
  <rect x="328" y="88" width="28" height="6" rx="3" fill="#C8FFF3"/>
  <rect x="328" y="114" width="28" height="6" rx="3" fill="#C8FFF3"/>
  <rect x="104" y="206" width="18" height="24" rx="4" fill="#C99746"/>
  <rect x="144" y="206" width="18" height="24" rx="4" fill="#C99746"/>
  <rect x="184" y="206" width="18" height="24" rx="4" fill="#C99746"/>
  <rect x="224" y="206" width="18" height="24" rx="4" fill="#C99746"/>
  <rect x="264" y="206" width="18" height="24" rx="4" fill="#C99746"/>
  <rect x="304" y="206" width="18" height="24" rx="4" fill="#C99746"/>
  <rect x="344" y="206" width="18" height="24" rx="4" fill="#C99746"/>
  <text x="240" y="258" text-anchor="middle" fill="#26405F" font-size="20" font-family="Segoe UI, Arial">INA219 Current and Power Sensor</text>
</svg>
